# xmcd
#
# Track frame offsets: 
#        150
#        20486
#        42492
#        67919
#        92687
#        114937
#        141457
#        164678
#        185889
#        213242
#
# Disc length: 3177 seconds
#
# Revision: 1
# Processed by: cddbd v1.5.2PL0 Copyright (c) Steve Scherf et al.
# Submitted via: ExactAudioCopy v1.0b3
#
DISCID=910c670a
DTITLE=Che Linh, Thanh Tuyen - Sao Em No Voi Lay Chong
DYEAR=1995
DGENRE=
TTITLE0=Che Linh - Nhan co cho em
TTITLE1=Thanh Tuyen - Co le
TTITLE2=Mua qua pho vang
TTITLE3=Che Linh - Dam cuoi nguoi ta
TTITLE4=Thanh Tuyen - Mua
TTITLE5=Che Linh - Hai ban tay trang
TTITLE6=Thanh Tuyen - Sao em no voi lay chong
TTITLE7=Che Linh, Thanh Tam - Lai nho nguoi yeu
TTITLE8=Thanh Tuyen - Nguoi thuong ke nho
TTITLE9=Che Linh - Ngay em sang ngang
EXTD=
EXTT0=
EXTT1=
EXTT2=
EXTT3=
EXTT4=
EXTT5=
EXTT6=
EXTT7=
EXTT8=
EXTT9=
PLAYORDER=
